<svg id="Capa_1" enable-background="new 0 0 512 512" height="512" viewBox="0 0 512 512" width="512" xmlns="http://www.w3.org/2000/svg"><g><path d="m142.497 152.633c1.502 0 3.029-.34 4.464-1.058l.057-.028c4.94-2.47 6.914-8.463 4.444-13.402-2.471-4.94-8.505-6.929-13.445-4.458-4.94 2.47-6.942 8.477-4.472 13.416 1.752 3.504 5.283 5.53 8.952 5.53z"/><path d="m482.583 199.413h-12.419c-5.077-19.252-12.705-37.641-22.751-54.848l8.779-8.797c5.55-5.529 8.611-12.904 8.619-20.766.007-7.875-3.049-15.272-8.605-20.829l-38.409-38.408c-5.536-5.535-12.919-8.584-20.791-8.584s-15.255 3.049-20.791 8.584l-8.793 8.793c-17.266-10.064-35.661-17.687-54.865-22.731v-12.438c.001-16.205-13.182-29.389-29.388-29.389h-54.339c-16.221 0-29.417 13.184-29.417 29.389v12.439c-19.223 5.054-37.612 12.675-54.847 22.731l-8.811-8.794c-11.443-11.442-30.09-11.448-41.582 0l-38.421 38.423c-11.435 11.479-11.429 30.126.013 41.568l8.816 8.816c-10.073 17.247-17.702 35.634-22.753 54.841h-12.44c-16.204 0-29.388 13.196-29.388 29.417v54.34c0 16.205 13.184 29.389 29.389 29.389h12.438c5.049 19.217 12.677 37.61 22.751 54.862l-8.813 8.795c-5.535 5.535-8.583 12.919-8.583 20.791s3.048 15.255 8.584 20.791l38.408 38.408c5.55 5.55 12.936 8.605 20.801 8.604h.028c7.861-.007 15.236-3.067 20.745-8.598l8.817-8.8c17.206 10.046 35.594 17.673 54.848 22.751v12.419c0 16.221 13.196 29.417 29.417 29.417h54.339c16.205 0 29.389-13.196 29.389-29.417v-12.417c19.264-5.075 37.66-12.702 54.87-22.749l8.775 8.775c5.537 5.558 12.925 8.618 20.804 8.618 7.878 0 15.267-3.061 20.79-8.604l38.396-38.396c5.558-5.536 8.619-12.925 8.619-20.804s-3.061-15.268-8.605-20.791l-8.789-8.788c10.047-17.212 17.674-35.607 22.749-54.869h12.417c16.221 0 29.417-13.184 29.417-29.389v-54.34c-.001-16.219-13.197-29.415-29.418-29.415zm9.417 83.757c0 5.177-4.225 9.389-9.417 9.389h-20.267c-4.677 0-8.729 3.241-9.756 7.804-5.06 22.478-13.881 43.752-26.216 63.232-2.503 3.952-1.931 9.112 1.377 12.421l14.356 14.355c1.763 1.757 2.734 4.113 2.734 6.636s-.971 4.879-2.747 6.648l-38.422 38.422c-1.756 1.763-4.113 2.733-6.635 2.733s-4.879-.971-6.648-2.747l-14.343-14.343c-3.308-3.309-8.469-3.881-12.421-1.377-19.477 12.335-40.751 21.155-63.232 26.216-4.563 1.027-7.804 5.079-7.804 9.756v20.268c0 5.192-4.212 9.417-9.389 9.417h-54.339c-5.192 0-9.417-4.225-9.417-9.417v-20.268c0-4.676-3.24-8.728-7.801-9.755-22.468-5.064-43.734-13.885-63.207-26.217-1.646-1.043-3.502-1.552-5.347-1.552-2.581 0-5.138.996-7.067 2.922l-14.392 14.364c-1.754 1.761-4.104 2.731-6.615 2.733-.003 0-.006 0-.009 0-2.522 0-4.887-.975-6.659-2.747l-38.408-38.408c-3.604-3.604-3.604-9.693-.007-13.29l14.371-14.343c3.314-3.308 3.89-8.473 1.384-12.428-12.377-19.545-21.196-40.815-26.214-63.222-1.023-4.567-5.078-7.814-9.758-7.814h-20.296c-5.177 0-9.389-4.212-9.389-9.389v-54.34c0-5.192 4.212-9.417 9.389-9.417h20.295c4.68 0 8.734-3.246 9.758-7.813 5.021-22.393 13.84-43.654 26.214-63.195 2.503-3.952 1.931-9.112-1.377-12.421l-14.371-14.371c-3.659-3.659-3.653-9.63 0-13.297l38.396-38.396c3.681-3.664 9.652-3.672 13.317-.006l14.371 14.343c3.308 3.302 8.462 3.871 12.411 1.372 19.519-12.351 40.781-21.161 63.198-26.188 4.567-1.023 7.813-5.078 7.813-9.758v-20.293c0-5.177 4.225-9.389 9.417-9.389h54.339c5.177 0 9.389 4.212 9.389 9.389v20.296c0 4.681 3.247 8.735 7.815 9.759 22.387 5.013 43.661 13.824 63.229 26.19 3.952 2.496 9.108 1.922 12.413-1.383l14.343-14.343c3.603-3.603 9.692-3.604 13.297 0l38.409 38.408c1.774 1.773 2.75 4.142 2.747 6.668-.002 2.512-.973 4.861-2.754 6.636l-14.343 14.371c-3.302 3.31-3.872 8.465-1.37 12.414 12.333 19.476 21.154 40.741 26.217 63.207 1.028 4.561 5.08 7.801 9.755 7.801h20.267c5.192 0 9.417 4.225 9.417 9.417v54.34z"/><path d="m312.36 255.985c0-31.084-25.289-56.373-56.374-56.373s-56.374 25.289-56.374 56.373c0 31.085 25.289 56.374 56.374 56.374s56.374-25.289 56.374-56.374zm-92.748 0c0-20.057 16.317-36.373 36.374-36.373s36.374 16.316 36.374 36.373-16.317 36.374-36.374 36.374-36.374-16.317-36.374-36.374z"/><path d="m439.639 245.985h-13.777c-2.403-41.727-19.791-80.625-49.592-110.426-26.583-26.583-60.283-43.294-97.457-48.326-4.262-.577-8.542-.983-12.828-1.232v-11.315c0-5.522-4.477-10-10-10s-10 4.478-10 10v11.33c-25.18 1.486-49.964 8.493-72.028 20.609-4.841 2.658-6.61 8.738-3.952 13.579 2.659 4.842 8.737 6.609 13.579 3.952 19.598-10.761 40.931-16.696 62.401-18.046v56.703c0 5.522 4.477 10 10 10s10-4.478 10-10v-56.64c35.451 2.453 69.918 17.305 96.142 43.53 26.022 26.022 41.321 59.902 43.698 96.283h-54.314c-5.523 0-10 4.478-10 10s4.477 10 10 10h54.315c-2.372 36.388-17.671 70.269-43.701 96.286-25.98 25.993-59.806 41.285-96.141 43.688v-56.772c0-5.522-4.477-10-10-10s-10 4.478-10 10v56.788c-36.436-2.347-70.37-17.65-96.426-43.706-26.255-26.255-41.112-60.779-43.536-96.284h54.437c5.523 0 10-4.478 10-10s-4.477-10-10-10h-54.482c1.365-21.431 7.297-42.723 18.036-62.289 2.658-4.841.887-10.92-3.955-13.578-4.838-2.656-10.92-.887-13.578 3.955-12.093 22.033-19.099 46.775-20.602 71.912h-13.545c-5.523 0-10 4.478-10 10s4.477 10 10 10h13.517c.248 4.332.658 8.658 1.241 12.966 5.032 37.177 21.743 70.878 48.327 97.461 29.835 29.835 68.786 47.228 110.568 49.6v11.302c0 5.522 4.477 10 10 10s10-4.478 10-10v-11.318c41.682-2.43 80.526-19.812 110.283-49.583 29.807-29.794 47.196-68.692 49.595-110.428h13.776c5.523 0 10-4.478 10-10s-4.478-10.001-10.001-10.001z"/></g></svg>